<svg width="182" height="70" viewBox="0 0 182 70" fill="none" xmlns="http://www.w3.org/2000/svg">
<g clip-path="url(#clip0_9_223)">
<path d="M19.4005 10.2101L12.7222 28.2391H26.3709L19.4005 10.2101ZM11.42 31.8924C8.98166 38.0473 6.99369 44.4201 5.47626 50.9462C4.61199 50.7053 3.72783 50.5685 2.83836 50.5382C1.88623 50.5779 0.939134 50.7145 0.00842285 50.9462C5.71836 36.8361 15.1765 13.1137 19.7261 0C20.2502 0.131727 20.784 0.207984 21.3205 0.227755C21.7922 0.225002 22.2613 0.148349 22.7146 0C27.6231 15.2867 41.7895 50.6805 41.9147 50.9462C40.6662 50.6692 39.3968 50.5325 38.1247 50.5382C36.7489 50.5619 35.3762 50.6982 34.0176 50.9462C32.2985 44.4153 30.1384 38.0451 27.5564 31.8924H11.42Z" fill="#535353"/>
<path d="M68.8114 30.2602C68.8114 27.8595 68.8114 18.1903 61.1481 18.1903C55.5633 18.1903 52.8837 23.0012 52.291 30.2602H68.8114ZM52.2492 33.2967C52.2492 35.3368 52.2493 39.4645 53.9689 42.7856C54.8491 44.5933 56.157 46.0847 57.7445 47.0909C59.332 48.0971 61.1357 48.578 62.9512 48.479C64.9436 48.5428 66.9182 48.0377 68.6944 47.0099C70.4707 45.9821 71.9919 44.4645 73.1189 42.5959L73.8785 42.7761C73.5957 44.206 73.4474 45.6661 73.4361 47.1316C70.6062 50.1681 66.7578 51.8761 61.5404 51.8761C51.7985 51.8761 45.8548 44.8922 45.8548 33.6857C45.8548 23.6559 50.7216 15.2202 61.2232 15.2202C75.5147 15.2202 75.3144 29.3303 75.2309 33.2492L52.2492 33.2967Z" fill="#535353"/>
<path d="M99.6233 23.618C99.4786 22.7404 99.1828 21.9039 98.753 21.1565C98.3233 20.4091 97.768 19.7655 97.119 19.2626C95.8671 18.3882 94.4129 17.9617 92.9451 18.0385C89.0299 18.0385 87.0014 20.3538 87.0014 23.4851C87.0014 27.7077 90.7913 29.2449 93.0285 29.8807C98.7385 31.5602 103.33 32.9172 103.33 40.2237C103.33 45.7557 99.9405 51.933 91.0334 51.933C87.6904 51.9667 84.4088 50.9131 81.5753 48.8966C82.3048 47.0491 82.8022 45.0942 83.0528 43.0893L83.8125 42.8616C84.4024 44.901 85.6408 46.6166 87.2852 47.6725C88.7023 48.601 90.3163 49.0704 91.9517 49.0294C95.2908 49.0294 98.4213 47.217 98.4213 43.0418C98.4213 38.8667 96.2258 38.0981 89.5224 35.6025C86.7676 34.5588 82.2181 32.3383 82.2181 25.9428C82.2181 21.8151 84.4553 15.0969 93.3124 15.0969C96.2974 15.0286 99.2447 15.8637 101.852 17.5166C101.162 19.4736 100.732 21.5362 100.575 23.637L99.6233 23.618Z" fill="#535353"/>
<path d="M116.344 33.3442C116.344 43.4594 120.259 49.0389 126.119 49.0389C132.263 49.0389 136.295 43.004 136.295 33.3916C136.295 27.6983 134.743 18.0575 126.437 18.0575C116.336 18.0575 116.336 31.1238 116.336 33.3442M142.84 33.1165C142.84 44.6835 135.82 51.9425 126.078 51.9425C119.291 51.9425 109.791 48.4506 109.791 33.5245C109.791 22.1378 116.469 15.1064 126.078 15.1064C138.207 15.1064 142.84 24.2253 142.84 33.1355" fill="#535353"/>
<path d="M159.411 22.5079C158.133 24.3203 156.773 26.9582 156.773 34.1698C156.773 40.5654 158.05 42.9756 159.411 44.788C160.218 45.945 161.252 46.8717 162.431 47.4944C163.609 48.1171 164.899 48.4186 166.198 48.3748C175.338 48.3748 175.338 36.0392 175.338 33.7239C175.338 22.7451 170.705 18.7503 166.556 18.7503C165.184 18.6785 163.817 18.9864 162.572 19.6475C161.328 20.3087 160.243 21.3032 159.411 22.5459M167.35 52.085C161.322 52.085 157.933 48.2894 156.89 45.3289C156.89 56.7156 156.806 63.3579 157.207 70.0571C156.115 69.7497 154.992 69.6125 153.868 69.649C152.713 69.6121 151.56 69.7493 150.437 70.0571C150.954 60.625 151.155 51.0792 151.155 41.5902C151.155 34.9479 151.038 26.0283 150.837 15.4576C151.872 15.7292 152.931 15.866 153.993 15.8656C155.053 15.8352 156.109 15.6987 157.148 15.4576C156.906 19.4525 156.906 20.5342 156.906 22.0999C157.965 19.8908 159.547 18.0625 161.472 16.8217C163.397 15.5808 165.589 14.9768 167.8 15.0781C174.186 15.0781 181.992 20.3824 181.992 33.3633C181.992 44.8449 175.722 52.0565 167.341 52.0565" fill="#535353"/>
<path d="M70.289 6.12036H52.6082V8.38822H70.289V6.12036Z" fill="#535353"/>
</g>
<defs>
<clipPath id="clip0_9_223">
<rect width="182" height="70" fill="white"/>
</clipPath>
</defs>
</svg>
