<svg width="186" height="219" viewBox="0 0 186 219" fill="none" xmlns="http://www.w3.org/2000/svg">
<path d="M94.1696 126.933C99.1905 126.933 102.985 123.406 102.985 118.703V115.915C100.474 115.076 97.8782 114.673 95.2822 114.673C90.4896 114.673 87.6083 117.024 87.6083 120.92C87.6083 125.052 91.0031 126.933 94.1696 126.933ZM87.0377 97.7774H95.5389C103.27 97.7774 107.521 102.446 107.521 110.944V130.795H102.928V126.664C101.13 129.015 98.1064 131.467 93.3423 131.467C88.2644 131.467 82.7871 128.209 82.7871 121.122C82.7871 114.404 87.2945 110.407 94.8258 110.407C98.3917 110.407 100.845 110.978 102.899 111.65V111.045C102.899 105.772 100.189 102.816 95.2537 102.749H86.9807V97.7774H87.0377ZM85.0979 103.521H84.4417C78.0515 103.521 73.915 109.097 73.915 117.729V130.795H69.208V98.1805H73.9436V105.234C76.3113 100.263 80.2767 97.4079 84.784 97.643H85.0979V103.521ZM45.4445 112.355H62.3328C61.8478 107.417 59.4515 102.278 53.9742 102.278C49.5239 102.278 46.0721 106.41 45.4445 112.355ZM54.0598 97.5087C61.9049 97.5087 67.154 104.462 67.154 114.773C67.154 115.277 67.154 115.781 67.0969 116.285L67.0684 116.621H45.4445C46.0721 122.633 49.7521 126.63 54.6874 126.63C57.9681 126.63 60.6212 125.253 63.0745 122.264L63.3028 121.995L66.3267 125.152L66.0985 125.455C62.8463 129.687 59.2804 131.568 54.5733 131.568C46.5856 131.568 40.5948 124.245 40.5948 114.572C40.5948 104.831 46.3859 97.5087 54.0598 97.5087ZM36.9147 120.148L37.1429 119.913L40.3666 123.574L40.1383 123.842C36.9147 127.638 32.6071 131.534 25.0758 131.534C14.2923 131.534 6.16196 121.793 6.16196 108.929C6.16196 95.9636 14.3779 86.1892 25.2469 86.1892C32.5785 86.1892 36.658 89.5145 39.9386 93.1421L40.1669 93.4108L36.8577 97.5423L36.6294 97.2736C32.9494 93.2093 29.5261 91.4627 25.2184 91.4627C17.2307 91.4627 11.2113 98.9194 11.2113 108.828C11.2113 118.77 17.2307 126.294 25.2184 126.294C30.3819 126.261 33.634 123.809 36.9147 120.148ZM109.66 142.249C109.004 142.249 108.519 142.081 108.091 141.577L108.548 141.074C108.861 141.443 109.232 141.577 109.689 141.577C110.259 141.577 110.602 141.275 110.602 140.805L110.43 140.267L109.945 140.066L109.432 139.965L108.605 139.562L108.291 138.588C108.291 137.681 108.833 137.076 109.774 137.076C110.373 137.076 110.773 137.244 111.144 137.647L110.716 138.151C110.43 137.849 110.117 137.748 109.746 137.748C109.232 137.748 108.947 138.084 108.947 138.554L109.118 139.025L109.603 139.26L110.088 139.361C110.487 139.428 110.716 139.528 110.915 139.73L111.286 140.771C111.258 141.678 110.602 142.249 109.66 142.249ZM106.494 137.782V142.216H105.837V137.782H104.611V137.076H107.72V137.782H106.494ZM102.528 142.249C101.872 142.249 101.387 142.081 100.959 141.577L101.416 141.074C101.729 141.443 102.1 141.577 102.528 141.577C103.099 141.577 103.441 141.275 103.441 140.805L103.27 140.267L102.785 140.066L102.271 139.965L101.444 139.562L101.13 138.588C101.13 137.681 101.672 137.076 102.614 137.076C103.213 137.076 103.612 137.244 103.983 137.647L103.555 138.151C103.27 137.849 102.956 137.748 102.585 137.748C102.072 137.748 101.786 138.084 101.786 138.554L101.958 139.025L102.443 139.26L102.956 139.361C103.356 139.428 103.584 139.528 103.783 139.73L104.154 140.771C104.097 141.678 103.441 142.249 102.528 142.249ZM99.5328 137.076H100.217V142.216H99.5328V137.076ZM98.135 141.645C97.4788 142.417 96.4233 142.417 95.7672 141.678C95.3392 141.174 95.3392 140.603 95.3392 139.629C95.3392 138.655 95.3392 138.084 95.7672 137.58C96.081 137.211 96.4804 137.009 96.9368 137.043C97.8782 137.043 98.4202 137.748 98.5343 138.622H97.8497C97.7356 138.051 97.4218 137.715 96.9083 137.715L96.2521 138.017C96.0239 138.286 95.9954 138.588 95.9954 139.596C95.9954 140.637 96.0524 140.939 96.2521 141.208L96.9083 141.51L97.6215 141.141L97.8497 140.335V140.032H96.9083V139.361H98.5058V140.133C98.5058 140.872 98.4202 141.275 98.135 141.645ZM93.542 138.051L92.8859 137.748L92.2298 138.051C92.0015 138.319 91.973 138.622 91.973 139.663C91.973 140.704 92.0301 140.973 92.2298 141.242L92.8859 141.544L93.542 141.242C93.7702 140.973 93.7988 140.67 93.7988 139.663C93.7988 138.588 93.7702 138.319 93.542 138.051ZM94.0555 141.678C93.3994 142.417 92.3724 142.417 91.7163 141.678C91.2883 141.174 91.2883 140.603 91.2883 139.629C91.2883 138.655 91.2883 138.084 91.7163 137.58C92.3724 136.841 93.3994 136.841 94.0555 137.58C94.4834 138.084 94.4834 138.655 94.4834 139.629C94.4834 140.603 94.4834 141.174 94.0555 141.678ZM88.0647 142.182V137.043H88.7494V141.477H90.889V142.182H88.0647ZM86.1248 138.051C85.754 137.647 85.1834 137.647 84.8126 138.051C84.6129 138.319 84.5558 138.622 84.5558 139.663C84.5558 140.704 84.6129 140.973 84.8126 141.242L85.4687 141.544L86.1248 141.242C86.3531 140.973 86.3816 140.67 86.3816 139.663C86.3816 138.588 86.3531 138.319 86.1248 138.051ZM86.6383 141.678C85.9822 142.417 84.9552 142.417 84.3276 141.678C83.8997 141.174 83.8997 140.603 83.8997 139.629C83.8997 138.655 83.8997 138.084 84.3276 137.58C84.9837 136.841 86.0107 136.841 86.6383 137.58C87.0662 138.084 87.0662 138.655 87.0662 139.629C87.0662 140.603 87.0662 141.174 86.6383 141.678ZM82.188 137.782V142.216H81.5034V137.782H80.3052V137.076H83.4147V137.782H82.188ZM78.565 138.219L77.8804 140.503H79.2497L78.565 138.219ZM79.7061 142.182L79.3923 141.141H77.6521L77.3383 142.182H76.6252L78.2512 137.043H78.7932L80.4193 142.182H79.7061ZM75.3414 142.182V138.756L74.3144 141.242H73.8294L72.7739 138.756V142.182H72.0893V137.043H72.7739L74.0577 140.234L75.3129 137.043H75.969V142.182H75.3414ZM69.7215 137.782H68.723V139.394H69.7215C70.1779 139.394 70.4632 139.092 70.4632 138.588C70.4632 138.084 70.1494 137.782 69.7215 137.782ZM70.4917 142.182L69.5503 140.032H68.723V142.182H68.0383V137.043H69.75C70.5773 137.043 71.1193 137.681 71.1193 138.554C71.1479 139.193 70.777 139.764 70.235 139.932L71.2334 142.182H70.4917ZM64.3012 142.182V137.043H67.1255V137.748H64.9859V139.26H66.8116V139.965H64.9859V141.51H67.1255V142.216L64.3012 142.182ZM62.4184 138.118L61.6482 137.782H60.8209V141.51H61.6482L62.4184 141.174C62.6466 140.872 62.6466 140.335 62.6466 139.629C62.6466 138.89 62.6466 138.42 62.4184 138.118ZM62.8748 141.712C62.5896 142.048 62.1902 142.182 61.7337 142.182H60.1647V137.043H61.7337C62.1902 137.043 62.6181 137.211 62.8748 137.513C63.3598 138.051 63.3313 138.823 63.3313 139.562C63.3313 140.335 63.3598 141.141 62.8748 141.712ZM56.827 142.182V139.932H55.0583V142.182H54.3736V137.043H55.0583V139.226H56.8555V137.043H57.5402V142.182H56.827ZM52.3767 137.782V142.216H51.7206V137.782H50.4939V137.076H53.6034V137.782H52.3767ZM49.0675 137.076H49.7521V142.216H49.0675V137.076ZM47.2417 142.182H46.6426L45.7583 138.588L44.8739 142.182H44.3034L43.1623 137.043H43.8755L44.6172 140.738L45.5015 137.076H46.0436L46.9279 140.738L47.6982 137.076H48.4113L47.2417 142.182ZM40.281 138.118L39.5107 137.782H38.6834V141.51H39.5107L40.281 141.174C40.5092 140.872 40.5092 140.335 40.5092 139.629C40.5092 138.89 40.5092 138.42 40.281 138.118ZM40.7374 141.712C40.4521 142.048 40.0528 142.182 39.5963 142.182H38.0273V137.043H39.5963C40.0528 137.043 40.4807 137.211 40.7374 137.513C41.2224 138.051 41.1939 138.823 41.1939 139.562C41.1939 140.335 41.2224 141.141 40.7374 141.712ZM34.2617 142.182V137.043H37.0859V137.748H34.9463V139.26H36.7721V139.965H34.9463V141.51H37.0859V142.216L34.2617 142.182ZM32.0365 137.782H31.038V139.495H32.0365C32.5215 139.495 32.8353 139.193 32.8353 138.655C32.8353 138.084 32.5215 137.782 32.0365 137.782ZM32.0936 140.167H31.0666V142.182H30.3819V137.043H32.0936C32.9779 137.043 33.5485 137.715 33.5485 138.588C33.5199 139.528 32.9779 140.167 32.0936 140.167ZM28.442 138.051C28.0712 137.647 27.5006 137.647 27.1298 138.051C26.9015 138.319 26.873 138.622 26.873 139.663C26.873 140.704 26.9301 140.973 27.1298 141.242L27.7859 141.544L28.442 141.242C28.6417 140.973 28.6988 140.67 28.6988 139.663C28.6988 138.588 28.6417 138.319 28.442 138.051ZM28.927 141.678C28.6132 142.048 28.2138 142.249 27.7574 142.216C27.3294 142.216 26.9015 142.014 26.5877 141.678C26.1598 141.174 26.1598 140.603 26.1598 139.629C26.1598 138.655 26.1598 138.084 26.5877 137.58C26.9015 137.211 27.3009 137.009 27.7574 137.043C28.1853 137.043 28.6132 137.244 28.927 137.58C29.3549 138.084 29.3549 138.655 29.3549 139.629C29.3549 140.603 29.3834 141.174 28.927 141.678ZM22.9362 142.182V137.043H23.6209V141.477H25.7604V142.182H22.9362ZM19.1991 142.182V137.043H22.0233V137.748H19.8837V139.26H21.7095V139.965H19.8837V141.51H22.0233V142.216L19.1991 142.182ZM17.1166 142.182H16.6031L15.1482 137.043H15.8328L16.8598 140.771L17.8868 137.043H18.6L17.1166 142.182ZM11.9245 142.182V137.043H14.7488V137.748H12.6092V139.26H14.435V139.965H12.6092V141.51H14.7488V142.216L11.9245 142.182ZM10.0417 138.118L9.27147 137.782H8.44417V141.51H9.27147L10.0417 141.174C10.2699 140.872 10.2699 140.335 10.2699 139.629C10.2985 138.89 10.2699 138.42 10.0417 138.118ZM10.5267 141.712C10.2414 142.048 9.84202 142.182 9.38558 142.182H7.81656V137.043H9.38558C9.84202 137.043 10.2699 137.211 10.5267 137.513C11.0117 138.051 10.9831 138.823 10.9831 139.562C10.9546 140.335 11.0117 141.141 10.5267 141.712Z" fill="#535353"/>
<path d="M139.272 86.9282L126.263 123.439L113.312 86.9282H107.92L124.124 131.098H128.26L144.492 86.9282H139.272ZM159.384 112.355H142.495C143.152 106.41 146.603 102.278 151.025 102.278C156.474 102.278 158.899 107.417 159.384 112.355ZM151.111 97.5088C143.437 97.5088 137.646 104.831 137.646 114.505C137.646 124.212 143.665 131.501 151.624 131.501C156.36 131.501 159.897 129.62 163.149 125.388L163.378 125.085L160.354 121.928L160.125 122.197C157.672 125.186 155.019 126.563 151.738 126.563C146.803 126.563 143.123 122.566 142.467 116.554H164.091L164.119 116.218C164.148 115.714 164.176 115.21 164.176 114.706C164.205 104.462 158.956 97.5088 151.111 97.5088ZM177.328 72.2834V143.156H124.409L98.4203 72.2834H177.328Z" fill="#808080"/>
</svg>
