<svg width="183" height="100" viewBox="0 0 183 100" fill="none" xmlns="http://www.w3.org/2000/svg">
<g clip-path="url(#clip0_9_210)">
<path d="M179.483 50.0001C182.291 55.7096 183.517 61.4122 182.657 66.9723C179.361 91.7992 139.061 105.207 91.3952 98.0721C140.758 90.6654 170.927 67.4068 179.483 50.0001ZM91.4998 1.92138C43.8345 -5.21371 3.54565 8.03136 0.238138 33.0212C-0.49428 38.588 0.604342 44.4333 3.41195 49.9933C12.2417 32.4509 42.2941 9.33483 91.4998 1.92138Z" fill="#B7B7B7"/>
<path d="M91.4998 1.92114C139.165 -5.21396 179.454 8.03112 182.761 33.0209C183.494 38.5878 182.395 44.433 179.588 49.9931C170.927 32.5932 141.002 9.33458 91.4998 1.92114ZM3.44682 49.9999C0.639218 55.7093 -0.587287 61.412 0.273014 66.9721C3.5689 91.9415 43.8694 105.207 91.5347 98.0719C41.9279 90.6652 12.1196 67.4065 3.44682 49.9999Z" fill="#696969"/>
<path d="M179.483 49.9999C170.688 67.4065 140.758 90.6652 91.407 98.0787C41.806 90.6652 11.9977 67.264 3.32495 49.9999C12.2419 32.4507 42.271 9.33458 91.5232 1.92114C141.002 9.33458 170.927 32.5932 179.483 49.9999Z" fill="#808080"/>
<path d="M161.379 34.0249C162.002 34.0249 162.609 34.1854 163.202 34.5063C163.795 34.824 164.256 35.2808 164.587 35.8768C164.918 36.4695 165.083 37.0884 165.083 37.7336C165.083 38.3721 164.919 38.9862 164.592 39.5756C164.268 40.1651 163.811 40.6235 163.221 40.951C162.635 41.2752 162.021 41.4373 161.379 41.4373C160.738 41.4373 160.122 41.2752 159.532 40.951C158.946 40.6235 158.489 40.1651 158.162 39.5756C157.834 38.9862 157.671 38.3721 157.671 37.7336C157.671 37.0884 157.836 36.4695 158.167 35.8768C158.501 35.2808 158.964 34.824 159.557 34.5063C160.15 34.1854 160.757 34.0249 161.379 34.0249ZM161.379 34.6389C160.859 34.6389 160.351 34.7732 159.857 35.0417C159.365 35.307 158.981 35.6885 158.702 36.1862C158.424 36.6807 158.285 37.1965 158.285 37.7336C158.285 38.2673 158.421 38.7798 158.692 39.2711C158.968 39.759 159.351 40.1405 159.842 40.4156C160.333 40.6874 160.846 40.8233 161.379 40.8233C161.913 40.8233 162.426 40.6874 162.917 40.4156C163.408 40.1405 163.79 39.759 164.061 39.2711C164.333 38.7798 164.469 38.2673 164.469 37.7336C164.469 37.1965 164.33 36.6807 164.052 36.1862C163.776 35.6885 163.392 35.307 162.897 35.0417C162.403 34.7732 161.897 34.6389 161.379 34.6389ZM159.753 39.7819V35.7933H161.124C161.592 35.7933 161.931 35.8309 162.141 35.9063C162.35 35.9783 162.517 36.106 162.642 36.2894C162.766 36.4728 162.828 36.6676 162.828 36.8739C162.828 37.1654 162.724 37.4192 162.514 37.6353C162.308 37.8515 162.033 37.9726 161.689 37.9988C161.83 38.0578 161.943 38.1282 162.028 38.21C162.188 38.3672 162.385 38.6308 162.617 39.0009L163.104 39.7819H162.318L161.964 39.1532C161.686 38.6587 161.461 38.3492 161.291 38.2248C161.173 38.1331 161.001 38.0872 160.775 38.0872H160.397V39.7819H159.753ZM160.397 37.5371H161.178C161.551 37.5371 161.805 37.4814 161.939 37.3701C162.077 37.2587 162.146 37.1114 162.146 36.928C162.146 36.8101 162.113 36.7053 162.047 36.6136C161.982 36.5186 161.89 36.4482 161.772 36.4024C161.658 36.3565 161.443 36.3336 161.129 36.3336H160.397V37.5371Z" fill="white"/>
<path d="M57.4426 41.8533C51.6995 41.8533 47.6712 46.8499 47.6712 53.8356V53.9782C47.6712 60.9707 51.5832 65.6754 57.4426 65.6754C58.932 65.7502 60.4157 65.415 61.7738 64.6968C63.1318 63.9787 64.3263 62.8976 65.2608 61.541L65.505 61.2559L63.1798 58.5403L63.0578 58.8254C62.4279 59.7852 61.6122 60.557 60.6775 61.0774C59.7429 61.5978 58.7159 61.8521 57.6809 61.8193C54.1409 61.8193 51.6936 59.1038 51.4495 54.8268H66.5048V52.9734C66.5048 46.6055 62.6916 41.8533 57.4426 41.8533ZM51.4553 51.2694C51.8215 48.133 54.5071 45.7026 57.4426 45.7026C58.7531 45.6965 60.0179 46.2652 60.9867 47.296C61.9554 48.3269 62.5576 49.7449 62.6741 51.2694H51.4553ZM96.4119 60.6856V49.1445C96.4119 44.433 93.7263 41.8668 89.2039 41.8668C85.908 41.8668 83.0946 43.4351 81.3857 46.5783L81.2636 46.8635L83.9491 49.2871L84.1933 49.002C84.7214 48.0139 85.4619 47.2045 86.3409 46.6543C87.22 46.1041 88.207 45.8321 89.2039 45.8655C92.0115 45.8655 92.9881 47.4337 92.9881 48.8594V49.1445C92.9881 50.4276 92.744 50.5702 88.3378 51.283C82.7168 52.281 80.2754 54.6774 80.2754 58.9884C80.2754 63.2993 82.9609 65.8384 87.2508 65.8384C90.0584 65.8384 92.2615 64.9829 93.6043 63.5573C93.7263 63.6998 93.7263 63.985 93.8484 64.2701C94.0887 64.6974 94.4142 65.0503 94.7969 65.2986C95.1795 65.5469 95.608 65.6832 96.0457 65.6958C96.7541 65.7049 97.4578 65.5598 98.1208 65.2681L98.2429 65.1255V62.1316H97.5105C96.9002 61.8397 96.4119 61.8397 96.4119 60.6992V60.6856ZM92.8718 54.1208V57.3998C92.8718 60.3937 90.7967 61.9687 87.2508 61.9687C84.9257 61.9687 83.5887 60.8281 83.5887 58.9748C83.5887 56.9789 85.1756 55.6958 88.4773 55.2681C90.7908 54.854 92.1336 54.5688 92.866 54.1344L92.8718 54.1208ZM73.9394 42.5797H78.2177V46.429H73.9394V58.6965C73.9394 61.1201 74.5498 61.9755 76.1367 61.9755C76.709 61.9941 77.2814 61.9463 77.8456 61.8329L78.2119 61.6903V65.5396L77.9677 65.6822C77.3629 65.8005 76.7495 65.8483 76.1367 65.8248C72.3525 65.8248 70.3936 63.4011 70.3936 58.6897V46.4358H68.1905V42.5865H70.3878V34.3041H73.9278L73.9394 42.5797ZM43.2534 57.2776L45.8169 59.9931L45.5727 60.2783C44.3152 62.0165 42.742 63.4058 40.9674 64.3453C39.1927 65.2847 37.2612 65.7507 35.313 65.7094C27.3727 65.7094 21.5075 58.7168 21.5075 49.5858C21.5075 40.4548 27.3727 33.6048 35.0689 33.6048C36.984 33.5858 38.8802 34.0476 40.6293 34.9588C42.3783 35.8701 43.9392 37.2095 45.2065 38.8865L45.4506 39.1717L42.8872 41.8872L42.6431 41.6021C41.6844 40.3784 40.5164 39.4035 39.2146 38.7404C37.9129 38.0773 36.5065 37.7408 35.0864 37.7528C29.2212 37.7528 24.9488 43.0345 24.9488 49.7351C24.9488 56.4358 29.227 61.7175 35.0864 61.7175C36.5542 61.7595 38.0108 61.4088 39.3448 60.6922C40.6788 59.9756 41.8547 58.9121 42.7826 57.5831L43.2534 57.2776ZM159.446 61.541V65.3903L159.202 65.5328C158.763 65.6575 158.311 65.7055 157.859 65.6754C154.197 65.6754 152.483 63.3944 152.483 58.968V34.0189H156.023V58.9884C156.023 61.2694 156.389 61.9823 157.976 61.9823C158.387 62.0214 158.8 61.9731 159.196 61.8397L159.446 61.541ZM110.95 41.8533C107.654 41.8533 105.718 43.4215 104.718 44.8472V42.5661H101.178V73.5234H104.718V62.9802C105.51 63.9754 106.477 64.7583 107.553 65.2752C108.629 65.792 109.788 66.0305 110.95 65.9741C116.571 65.9741 120.832 60.6924 120.832 53.9918C120.721 47.006 116.443 41.8533 110.95 41.8533ZM117.181 53.6931C117.181 58.262 114.496 61.8397 110.95 61.8397C107.166 61.8397 104.352 58.4453 104.352 53.6931C104.352 49.1242 107.16 45.5464 110.95 45.5464C114.612 45.7229 117.175 49.1445 117.175 53.7067L117.181 53.6931ZM148.466 37.1622C148.466 37.6697 148.337 38.1659 148.096 38.5879C147.854 39.0099 147.511 39.3388 147.11 39.533C146.708 39.7273 146.266 39.7781 145.84 39.6791C145.414 39.58 145.022 39.3356 144.715 38.9768C144.408 38.6179 144.198 38.1606 144.114 37.6628C144.029 37.165 144.072 36.649 144.239 36.1801C144.405 35.7112 144.687 35.3104 145.048 35.0285C145.409 34.7465 145.834 34.596 146.269 34.596C146.557 34.5951 146.843 34.6609 147.11 34.7895C147.377 34.9182 147.62 35.1071 147.824 35.3456C148.028 35.5841 148.19 35.8673 148.3 36.1791C148.41 36.4908 148.467 36.8249 148.466 37.1622ZM144.432 42.5933H147.972V65.2817H144.397L144.432 42.5933ZM140.276 50.8689V65.1255H136.724V51.4256C136.724 48.0311 135.015 45.8587 132.568 45.8587C129.76 45.8587 127.801 48.1398 127.801 51.5681V65.1459H124.383V34.0189H127.923V45.0033C128.535 44.0621 129.326 43.3011 130.235 42.7812C131.143 42.2613 132.143 41.997 133.155 42.0094C137.456 42.152 140.264 45.431 140.264 50.8553L140.276 50.8689Z" fill="white"/>
</g>
<defs>
<clipPath id="clip0_9_210">
<rect width="183" height="100" fill="white"/>
</clipPath>
</defs>
</svg>
