<svg width="337" height="72" viewBox="0 0 337 72" fill="none" xmlns="http://www.w3.org/2000/svg">
<g clip-path="url(#clip0_9_219)">
<path d="M230.176 20.9593V15.7063C230.176 4.99039 231.93 3.32695 232.495 3.32695C233.476 3.32695 233.595 4.06238 233.595 8.15965C233.488 12.7177 232.304 17.1503 230.176 20.9593ZM50.9521 20.9593V15.7063C50.9521 4.99039 52.7208 3.32695 53.2708 3.32695C54.2517 3.32695 54.3707 4.06238 54.3707 8.15965C54.2638 12.7177 53.0799 17.1503 50.9521 20.9593ZM37.3817 28.0857C35.1224 28.0857 33.9036 27.5079 33.9036 26.0721C33.8944 25.9367 33.9105 25.8006 33.9507 25.6734C33.991 25.5462 34.0545 25.4309 34.1367 25.3357C34.2189 25.2406 34.3178 25.1678 34.4265 25.1226C34.5352 25.0774 34.651 25.0608 34.7657 25.074C35.5535 25.074 36.7128 26.0721 37.3966 28.0857M216.606 28.0857C214.346 28.0857 213.128 27.5079 213.128 26.0721C213.121 25.939 213.139 25.8059 213.179 25.6813C213.219 25.5568 213.281 25.4437 213.361 25.3494C213.441 25.2552 213.537 25.1819 213.643 25.1345C213.749 25.087 213.862 25.0664 213.975 25.074C214.763 25.074 215.937 26.0721 216.591 28.0857M124.943 28.0857C123.456 28.0857 122.267 27.2628 122.267 25.9845C122.261 25.8515 122.278 25.7183 122.318 25.5938C122.359 25.4692 122.421 25.3561 122.501 25.2619C122.581 25.1676 122.677 25.0944 122.783 25.0469C122.888 24.9995 123.001 24.9789 123.114 24.9865C123.917 24.9865 125.136 25.9845 125.805 27.9982C125.552 27.9982 125.195 27.9982 124.943 27.9982M304.167 27.9982C302.68 27.9982 301.491 27.1752 301.491 25.897C301.482 25.7616 301.498 25.6256 301.538 25.4983C301.578 25.3711 301.642 25.2558 301.724 25.1607C301.806 25.0655 301.905 24.9927 302.014 24.9475C302.123 24.9023 302.238 24.8857 302.353 24.8989C303.141 24.8989 304.36 25.897 305.029 27.9106C304.791 27.9106 304.434 27.9106 304.181 27.9106M168.775 37.9087C166.397 37.9087 164.628 36.8231 164.628 35.2472C164.628 34.2316 165.044 33.6538 166.263 33.6538C168.225 33.6538 169.801 35.2472 171.525 37.7686C170.612 37.8894 169.693 37.9362 168.775 37.9087ZM189.064 41.253C185.942 36.788 183.995 31.7452 183.995 23.1129C183.995 10.8561 190.282 2.39894 193.523 2.39894L193.746 2.6791C193.746 3.11684 192.898 5.13045 191.799 8.73745C190.29 13.6977 189.525 18.9295 189.539 24.1985C189.774 28.9011 190.27 33.5805 191.026 38.2064L189.064 41.253ZM9.83962 41.253C6.71829 36.788 4.77119 31.7452 4.77119 23.1129C4.77119 10.8561 11.0584 2.38144 14.2987 2.38144C14.4919 2.38144 14.5513 2.38145 14.5513 2.6616C14.5513 2.94176 13.6893 5.11295 12.5894 8.71995C11.079 13.6797 10.3144 18.9118 10.3301 24.181C10.5564 28.8845 11.053 33.5645 11.8165 38.1888L9.83962 41.253ZM280.355 42.5487C279.88 42.5487 279.374 41.9009 279.374 40.9028C279.578 39.4729 280.09 38.1285 280.861 36.9982C281.207 38.0364 281.394 39.1394 281.411 40.255C281.411 41.4106 281.039 42.5663 280.37 42.5663M101.146 42.5663C100.67 42.5663 100.18 41.9184 100.18 40.9203C100.386 39.4913 100.898 38.1476 101.666 37.0157C102.009 38.0552 102.196 39.1574 102.216 40.2725C102.216 41.4281 101.845 42.5838 101.161 42.5838M187.369 67.3425C186.076 67.3425 184.991 65.8192 184.917 63.1752C184.798 54.5429 188.291 47.1889 191.754 41.9359C192.266 45.4087 192.574 48.919 192.675 52.4418C192.675 59.3231 190.743 67.3425 187.399 67.3425M8.17492 67.3425C6.8818 67.3425 5.7819 65.8192 5.73731 63.1752C5.6184 54.5429 9.09647 47.1889 12.5745 41.9359C13.0907 45.4081 13.3986 48.9187 13.4961 52.4418C13.4961 59.3231 11.5638 67.3425 8.21951 67.3425M16.0674 -0.0349121C11.1179 -0.0349121 0.23782 9.24525 0.23782 23.148C0.23782 33.006 3.29968 37.7511 8.60595 43.8795C5.38057 50.0079 2.79434 57.2744 2.79434 63.7705C2.79434 68.4281 3.71587 71.9651 6.64398 71.9651C12.7529 71.9651 17.3308 56.9943 17.3308 45.9106C17.3308 42.5954 17.2119 39.2861 16.9741 35.9826C18.9413 33.3672 21.1498 31.018 23.5586 28.9787C23.178 30.4678 22.9729 32.0114 22.9492 33.5663C22.9492 39.6246 25.9219 45.3853 31.5701 45.3853C36.8912 45.3853 40.9192 40.2725 40.9192 33.1285C40.9192 32.2005 40.9192 31.3775 40.8003 30.5546C42.7188 30.2131 44.5678 29.4593 46.2552 28.3308V42.7939C46.2291 43.1344 46.2656 43.4775 46.3622 43.7999C46.4587 44.1223 46.6131 44.4165 46.8147 44.6624C47.0164 44.9082 47.2607 45.1 47.5309 45.2248C47.8011 45.3495 48.0909 45.4043 48.3807 45.3853C49.867 45.3853 50.521 44.2297 51.5615 41.5857C52.4235 39.4145 54.7422 34.4592 56.1543 31.5001C57.2542 29.1888 57.8636 27.683 58.3541 27.683C58.473 27.683 58.6068 28.0332 58.6068 28.8912V41.148C58.6068 44.4573 60.0931 45.3328 61.3416 45.3328C61.9226 45.3002 62.4866 45.0912 62.9788 44.7261C63.471 44.361 63.8748 43.8523 64.1508 43.2492C67.3316 37.9962 70.7057 31.5877 72.0285 28.8386C72.2812 28.3484 72.5784 27.9807 72.8311 27.9807C73.0838 27.9807 73.2027 28.1382 73.2027 29.0487V41.9359C73.2027 44.2472 73.8121 45.3328 75.3431 45.3328C75.9791 45.2931 76.591 45.0325 77.1015 44.5838C77.612 44.1351 77.9983 43.5184 78.2117 42.8114C80.2331 37.8387 83.2356 31.29 84.5138 28.6986C84.8111 28.1207 85.1232 27.6305 85.3016 27.6305C85.48 27.6305 85.5989 27.9807 85.5989 28.9262V41.183C85.5989 44.4923 87.0852 45.3678 88.3635 45.3678C90.0579 45.3678 91.1727 43.932 92.2726 42.2686C94.2791 39.1693 97.2073 33.6363 98.9909 30.0118C99.6847 31.3047 100.296 32.6567 100.819 34.0565C99.3327 36.1402 97.8464 38.504 97.8464 41.0604C97.812 41.593 97.8696 42.1282 98.0155 42.6339C98.1614 43.1395 98.3927 43.6052 98.6955 44.0027C98.9982 44.4003 99.3662 44.7215 99.7771 44.9471C100.188 45.1727 100.633 45.2979 101.087 45.3153C103.896 45.3153 106.467 42.146 106.467 37.7511C106.407 35.9455 106.074 34.167 105.486 32.4982C107.998 29.6266 110.986 26.8075 113.185 26.1597C111.913 28.3088 111.247 30.8759 111.283 33.4962C111.283 39.5546 114.256 45.3153 119.889 45.3153C125.522 45.3153 129.238 40.2025 129.238 33.0585C129.279 31.9859 129.22 30.9112 129.06 29.8542C130.224 29.2033 131.313 28.3795 132.3 27.4028C132.773 26.8745 133.367 26.5214 134.009 26.3873C134.559 26.3873 134.812 26.895 134.812 27.8406V41.9534C134.812 44.2647 135.421 45.3503 136.937 45.3503C137.588 45.3185 138.216 45.0626 138.745 44.6145C139.273 44.1663 139.678 43.5455 139.91 42.8289C141.932 37.8561 144.86 31.2375 146.138 28.7161C146.45 28.1382 146.688 27.7005 146.866 27.7005C147.045 27.7005 147.238 27.9281 147.238 28.8386V40.0799C147.238 43.2491 148.457 45.3328 151.147 45.3328C153.837 45.3328 155.368 42.1635 157.821 37.2608C157.918 37.0381 157.974 36.7932 157.984 36.5429C157.98 36.4002 157.952 36.2599 157.901 36.1305C157.85 36.0012 157.777 35.8854 157.686 35.7903C157.596 35.6953 157.49 35.623 157.375 35.5778C157.26 35.5325 157.139 35.5154 157.018 35.5273C156.468 35.5273 156.156 36.1752 154.328 38.539C153.956 38.9943 153.599 39.6071 152.916 39.6071C152.678 39.6071 152.485 39.2569 152.485 38.8191V26.2122C152.485 22.8328 151.191 21.467 149.512 21.467C148.761 21.4824 148.029 21.7383 147.392 22.2072C146.756 22.6761 146.24 23.3403 145.9 24.1285C143.947 27.7908 142.152 31.5659 140.519 35.4398C140.386 35.7374 140.222 36.1752 140.088 36.1752C139.955 36.1752 139.91 35.9651 139.91 35.4398V26.2122C139.91 23.5507 139.301 21.467 136.937 21.467C134.574 21.467 133.162 23.4806 131.319 24.969C130.388 25.7963 129.393 26.5174 128.346 27.1227C127.142 23.5157 124.943 21.6596 123.055 21.6596H122.966C122.539 21.6299 122.111 21.7058 121.71 21.8827C121.31 22.0595 120.945 22.3333 120.64 22.6863C120.335 23.0393 120.095 23.4638 119.938 23.9324C119.78 24.4009 119.708 24.9032 119.725 25.4067C119.715 26.4538 119.987 27.4778 120.502 28.3307C121.018 29.1837 121.751 29.8215 122.594 30.1519C123.545 30.5608 124.556 30.7395 125.567 30.6772C125.888 30.7253 126.212 30.7253 126.533 30.6772C126.599 31.5217 126.599 32.3716 126.533 33.2161C126.533 36.718 124.764 40.22 121.464 40.22C118.165 40.22 116.024 36.3328 116.024 31.8678C115.928 28.9313 116.724 26.0504 118.269 23.7433C118.834 23.0254 119.25 22.5877 119.25 21.9923C119.25 21.6596 118.819 21.5721 118.462 21.5721C116.126 21.7461 113.851 22.5296 111.803 23.8659C109.165 25.6065 106.702 27.6916 104.461 30.0818C103.361 27.1927 102.023 24.6713 101.339 22.7277C101.101 21.9398 100.923 20.9768 100.433 20.9768C99.9422 20.9768 99.8084 21.4845 99.5111 22.4826C97.2646 28.309 94.4993 33.8381 91.2618 38.9768L90.9051 39.4145C90.7714 39.4145 90.697 39.4145 90.697 38.9067V26.2997C90.697 22.9204 89.5377 21.5546 87.9473 21.5546C87.1975 21.5634 86.4645 21.8168 85.8296 22.2866C85.1946 22.7564 84.6826 23.4243 84.3503 24.2161C82.3438 27.8406 79.8913 33.076 78.7319 35.6674C78.5536 36.1052 78.3604 36.2453 78.3009 36.2453C78.2414 36.2453 78.1968 35.9651 78.1968 35.5098V26.2822C78.1968 22.9028 77.0375 21.5371 75.4471 21.5371C74.6833 21.5212 73.9315 21.7634 73.2809 22.2351C72.6303 22.7067 72.108 23.3881 71.7758 24.1985C69.2044 29.3114 64.9386 37.1733 64.136 38.469L63.7644 38.9067C63.6455 38.9067 63.5712 38.7666 63.5712 38.3989V26.2997C63.5712 22.9204 62.4118 21.5546 60.8214 21.5546C58.6216 21.5546 57.4028 23.9359 56.6002 25.4417C55.5003 27.5254 54.0437 30.3445 52.8843 32.9359C52.4581 34.1373 51.8765 35.2537 51.1601 36.2453C51.0412 36.2453 51.0412 35.5974 51.0412 34.3717V24.7414C54.9482 19.8649 57.1691 13.4458 57.269 6.74134C57.269 2.85418 55.7827 0.682993 53.5383 0.682993C49.3171 0.682993 46.1066 8.4573 46.1066 17.6849V25.1616C44.2543 26.5027 42.2006 27.4122 40.0571 27.8406C38.9126 23.8659 36.5196 21.7822 34.5874 21.7822H34.4982C34.0711 21.7524 33.6435 21.8284 33.2429 22.0053C32.8423 22.1821 32.4776 22.4558 32.1724 22.8089C31.8671 23.1619 31.628 23.5864 31.4705 24.055C31.313 24.5235 31.2406 25.0258 31.2579 25.5293C31.2579 29.3464 34.4387 30.9398 37.2033 30.9398H38.006C38.1091 31.7039 38.1489 32.4779 38.1249 33.2511C38.1249 36.753 36.3561 40.255 33.0564 40.255C29.7567 40.255 27.6164 36.3678 27.6164 31.9028C27.5131 28.9652 28.3097 26.0817 29.8608 23.7783C30.3214 23.3153 30.6615 22.7083 30.8417 22.0274C30.8417 21.6947 30.4107 21.6071 30.0391 21.6071C27.7204 21.6071 22.6074 25.2842 16.4836 32.4807C15.8378 26.889 15.4508 21.26 15.3243 15.6188C15.3722 11.3058 15.8006 7.01032 16.6025 2.80166C16.7014 2.16508 16.7659 1.52178 16.7958 0.875601C16.7958 0.29778 16.5431 0.000114828 15.8742 0.000114828M180.859 38.3814C181.782 38.4048 182.702 38.522 183.609 38.7316C184.822 40.6141 186.17 42.3714 187.637 43.9845C184.397 50.1129 181.825 57.3795 181.825 63.8756C181.825 68.5332 182.747 72.0702 185.675 72.0702C191.784 72.0702 196.362 57.0993 196.362 46.0157C196.362 42.7063 196.243 39.397 195.99 36.0876C197.964 33.4736 200.177 31.1248 202.589 29.0838C202.211 30.5734 202.006 32.1167 201.98 33.6713C201.98 39.7122 204.953 45.4904 210.601 45.4904C215.922 45.4904 219.935 40.3775 219.935 33.2336C219.936 32.3737 219.896 31.5144 219.816 30.6596C221.736 30.3248 223.586 29.5706 225.271 28.4359V42.8989C225.245 43.2402 225.282 43.584 225.378 43.9073C225.475 44.2305 225.629 44.5256 225.83 44.7728C226.032 45.02 226.276 45.2135 226.546 45.3403C226.816 45.4671 227.106 45.5242 227.397 45.5079C228.883 45.5079 229.552 44.3523 230.592 41.7083C231.439 39.5371 233.758 34.5643 235.185 31.6227C236.27 29.3114 236.88 27.8056 237.385 27.8056C237.504 27.8056 237.623 28.1557 237.623 29.0137V41.2706C237.623 44.5799 239.109 45.4554 240.372 45.4554C240.956 45.424 241.522 45.2157 242.017 44.8507C242.512 44.4856 242.918 43.9762 243.197 43.3717C246.362 38.1188 249.736 31.7102 251.074 28.9612C251.312 28.4709 251.624 28.1032 251.862 28.1032C252.1 28.1032 252.234 28.2608 252.234 29.1713V42.0585C252.234 44.3697 252.828 45.4554 254.359 45.4554C254.994 45.4135 255.605 45.152 256.116 44.7036C256.626 44.2552 257.013 43.6397 257.228 42.9339C259.249 37.9612 262.251 31.4126 263.515 28.8211C263.827 28.2433 264.139 27.753 264.332 27.753C264.526 27.753 264.63 28.1032 264.63 29.0487V41.3056C264.63 44.6149 266.116 45.4904 267.365 45.4904C269.089 45.4904 270.189 44.0546 271.274 42.3912C273.295 39.2744 276.223 33.7589 278.007 30.1343C278.694 31.4315 279.305 32.783 279.835 34.1791C278.349 36.2628 276.862 38.6266 276.862 41.183C276.826 41.7146 276.881 42.2495 277.026 42.7551C277.17 43.2607 277.4 43.7265 277.701 44.1244C278.003 44.5222 278.37 44.8438 278.78 45.0695C279.19 45.2953 279.635 45.4206 280.088 45.4379C282.897 45.4379 285.453 42.2686 285.453 37.8737C285.397 36.0692 285.07 34.2908 284.487 32.6207C286.984 29.7492 289.987 26.9301 292.201 26.2822C290.935 28.434 290.274 31.0006 290.314 33.6188C290.314 39.6596 293.286 45.4379 298.92 45.4379C304.553 45.4379 308.254 40.325 308.254 33.181C308.293 32.1027 308.233 31.0226 308.076 29.9593C309.243 29.3136 310.332 28.4893 311.316 27.5079C311.787 26.9769 312.382 26.6234 313.025 26.4923C313.575 26.4923 313.828 27.0001 313.828 27.9456V42.0585C313.828 44.3697 314.437 45.4554 315.953 45.4554C316.603 45.4213 317.231 45.1646 317.759 44.7168C318.287 44.2689 318.692 43.6493 318.926 42.9339C320.933 37.9612 323.861 31.3425 325.154 28.8211C325.466 28.2433 325.704 27.8056 325.897 27.8056C326.09 27.8056 326.269 28.0332 326.269 28.9437V40.185C326.269 43.3542 327.487 45.4379 330.178 45.4379C332.868 45.4379 334.399 42.2686 336.851 37.3659C336.949 37.1431 337.005 36.8983 337.015 36.648C337.009 36.5061 336.98 36.367 336.928 36.2388C336.876 36.1105 336.803 35.9957 336.713 35.9012C336.623 35.8066 336.518 35.7341 336.404 35.688C336.29 35.6418 336.169 35.6229 336.049 35.6324C335.499 35.6324 335.187 36.2803 333.358 38.6441C332.987 39.0993 332.63 39.7122 331.946 39.7122C331.694 39.7122 331.53 39.362 331.53 38.9243V26.3172C331.53 22.9379 330.237 21.5721 328.558 21.5721C327.807 21.5893 327.075 21.846 326.439 22.3147C325.803 22.7834 325.287 23.4466 324.946 24.2336C322.99 27.8902 321.198 31.6659 319.58 35.5449C319.461 35.8425 319.283 36.2627 319.134 36.2627C318.985 36.2627 318.971 36.0527 318.971 35.5449V26.3172C318.971 23.6558 318.346 21.5721 315.998 21.5721C313.649 21.5721 312.208 23.5857 310.379 25.074C309.448 25.9006 308.453 26.6217 307.407 27.2277C306.218 23.6207 304.003 21.7647 302.13 21.7647H302.041C301.614 21.7349 301.186 21.8109 300.786 21.9877C300.385 22.1646 300.021 22.4383 299.715 22.7914C299.41 23.1444 299.171 23.5689 299.013 24.0374C298.856 24.506 298.784 25.0082 298.801 25.5118C298.787 26.5573 299.056 27.581 299.569 28.4342C300.082 29.2874 300.813 29.9259 301.655 30.2569C302.606 30.6645 303.617 30.8431 304.627 30.7822C304.948 30.8291 305.273 30.8291 305.593 30.7822C305.657 31.6268 305.657 32.4765 305.593 33.3211C305.593 36.8231 303.81 40.325 300.51 40.325C297.21 40.325 295.085 36.4378 295.085 31.9729C294.994 29.0343 295.795 26.1538 297.344 23.8484C297.894 23.1305 298.325 22.6927 298.325 22.0974C298.325 21.7647 297.894 21.6772 297.537 21.6772C295.201 21.8523 292.927 22.6357 290.879 23.9709C288.242 25.7132 285.779 27.7982 283.536 30.1869C282.436 27.2978 281.113 24.7764 280.415 22.8328C280.162 22.0448 279.984 21.0818 279.493 21.0818C279.003 21.0818 278.884 21.5896 278.586 22.5877C276.34 28.4139 273.574 33.9429 270.337 39.0818L269.966 39.5196C269.847 39.5196 269.787 39.5196 269.787 39.0118V26.4048C269.787 23.0254 268.628 21.6596 267.038 21.6596C266.286 21.6692 265.551 21.9227 264.914 22.3922C264.277 22.8618 263.762 23.5292 263.426 24.3211C261.404 27.9456 258.967 33.181 257.807 35.7725C257.629 36.2102 257.451 36.3503 257.391 36.3503C257.332 36.3503 257.257 36.0701 257.257 35.6324V26.4048C257.257 23.0254 256.098 21.6596 254.508 21.6596C253.746 21.6449 252.997 21.8879 252.349 22.3596C251.7 22.8313 251.181 23.5121 250.851 24.3211C248.265 29.4515 243.999 37.2958 243.211 38.5916L242.84 39.0293C242.721 39.0293 242.647 38.8892 242.647 38.5215V26.4223C242.647 23.0429 241.502 21.6772 239.897 21.6772C237.697 21.6772 236.478 24.0585 235.676 25.5643C234.576 27.648 233.119 30.467 231.96 33.0585C231.54 34.2558 230.968 35.3714 230.265 36.3678C230.146 36.3678 230.146 35.72 230.146 34.4943V24.8639C234.053 19.9874 236.274 13.5684 236.374 6.86392C236.374 2.97677 234.888 0.805547 232.643 0.805547C228.422 0.805547 225.212 8.57988 225.212 17.8075V25.2842C223.354 26.6247 221.295 27.534 219.147 27.9632C218.018 23.9884 215.61 21.9048 213.678 21.9048H213.588C213.16 21.8724 212.731 21.9465 212.329 22.1222C211.926 22.2979 211.56 22.5713 211.253 22.9246C210.946 23.2779 210.705 23.7033 210.547 24.1731C210.389 24.6429 210.316 25.1467 210.333 25.6519C210.333 29.469 213.514 31.0624 216.279 31.0624H217.081C217.173 31.8277 217.208 32.6011 217.185 33.3736C217.185 36.8756 215.417 40.3775 212.117 40.3775C208.817 40.3775 206.692 36.4904 206.692 32.0254C206.605 29.0875 207.405 26.2085 208.951 23.9009C209.408 23.4375 209.743 22.83 209.917 22.1499C209.917 21.8172 209.501 21.7297 209.129 21.7297C206.811 21.7297 201.698 25.4242 195.559 32.6032C194.912 27.0116 194.525 21.3826 194.4 15.7413C194.449 11.4285 194.878 7.13326 195.678 2.92424C195.772 2.28734 195.832 1.644 195.856 0.998155C195.856 0.420334 195.604 0.122669 194.95 0.122669C189.985 0.122669 179.12 9.40283 179.12 23.3056C178.972 27.9516 179.968 32.5489 181.989 36.5429C181.424 36.4342 180.852 36.3873 180.279 36.4029C178.608 36.4754 176.948 36.7631 175.33 37.2608V35.825C175.33 32.7258 174.72 28.4884 173.606 27.0701L173.13 26.8425C172.497 26.9186 171.887 27.1641 171.346 27.5604C170.618 28.0157 169.86 28.4359 169.86 28.7161C169.857 28.9494 169.92 29.1773 170.038 29.3639C171.141 30.9521 171.837 32.8774 172.045 34.9145C171.066 33.7391 169.887 32.8198 168.586 32.2164C167.285 31.6131 165.891 31.3392 164.494 31.4126C160.823 31.4126 159.723 33.3386 159.723 35.3172C159.723 39.0643 163.944 40.9203 169.265 40.9203C170.333 40.8856 171.395 40.7153 172.431 40.4125C172.431 41.5682 172.55 42.5838 172.55 43.4417C172.55 44.6674 172.729 45.5955 173.412 45.5955C174.453 45.5955 175.062 43.1441 175.181 39.6246C176.977 39.0108 178.828 38.6522 180.695 38.5565" fill="white"/>
<path d="M53.2856 3.30945C52.7356 3.30945 50.9669 4.97286 50.9669 15.6888V20.9417C53.0947 17.1328 54.2786 12.7002 54.3855 8.14213C54.3855 4.04485 54.2666 3.30945 53.2856 3.30945ZM34.7211 25.074C34.6064 25.0608 34.4906 25.0774 34.3819 25.1226C34.2732 25.1678 34.1743 25.2406 34.0921 25.3357C34.0098 25.4309 33.9464 25.5462 33.9061 25.6734C33.8658 25.8006 33.8497 25.9367 33.859 26.0721C33.859 27.5079 35.0778 28.0857 37.337 28.0857C36.6533 26.0721 35.494 25.074 34.7062 25.074M123.055 25.074C122.942 25.0664 122.829 25.087 122.723 25.1345C122.617 25.1819 122.521 25.2552 122.441 25.3494C122.361 25.4437 122.299 25.5568 122.259 25.6813C122.219 25.8059 122.201 25.939 122.208 26.0721C122.208 27.3503 123.426 28.1733 124.883 28.1733C125.136 28.1733 125.492 28.1733 125.745 28.1733C125.076 26.1596 123.843 25.1616 123.055 25.1616M14.2243 2.55652C10.9841 2.55652 4.69682 11.0488 4.69682 23.2881C4.69682 31.9204 6.64395 36.9632 9.76528 41.4281L11.7273 38.3289C10.9638 33.7045 10.4672 29.0246 10.2409 24.3211C10.2252 19.0519 10.9897 13.8198 12.5002 8.86003C13.6001 5.25303 14.4621 3.2394 14.4621 2.80166C14.4621 2.36391 14.4621 2.52152 14.2095 2.52152M101.607 37.0682C100.838 38.2001 100.327 39.5439 100.12 40.9729C100.12 41.9709 100.611 42.6188 101.087 42.6188C101.562 42.6188 102.142 41.4631 102.142 40.3075C102.121 39.1924 101.935 38.0902 101.592 37.0507M12.411 41.9534C8.93292 47.2063 5.45486 54.5429 5.57377 63.1927C5.57377 65.8542 6.71825 67.36 8.01138 67.36C11.3557 67.36 13.2879 59.3406 13.2879 52.4592C13.1905 48.9362 12.8825 45.4255 12.3664 41.9534M6.421 71.9651C3.4483 71.9651 2.57133 68.4631 2.57133 63.7705C2.57133 57.2744 5.15759 50.0079 8.38297 43.8795C3.06183 37.7686 0.0148106 33.006 0.0148106 23.148C0.0148106 9.24525 10.8949 -0.0349121 15.8444 -0.0349121C16.5133 -0.0349121 16.766 0.262753 16.766 0.840574C16.7361 1.48676 16.6716 2.13008 16.5727 2.76665C15.7708 6.97532 15.3425 11.2708 15.2945 15.5838C15.421 21.225 15.8081 26.8539 16.4539 32.4456C22.5627 25.2491 27.6906 21.5721 30.0094 21.5721C30.3809 21.5721 30.812 21.5721 30.812 21.9923C30.6317 22.6733 30.2916 23.2803 29.831 23.7433C28.2799 26.0467 27.4833 28.9302 27.5866 31.8678C27.5866 36.3328 29.608 40.22 33.0266 40.22C36.4452 40.22 38.0951 36.718 38.0951 33.2161C38.1191 32.4429 38.0793 31.6688 37.9762 30.9048H37.1735C34.3643 30.9048 31.2281 29.3289 31.2281 25.4943C31.2108 24.9907 31.2832 24.4885 31.4407 24.0199C31.5982 23.5514 31.8373 23.1269 32.1426 22.7738C32.4479 22.4208 32.8126 22.1471 33.2132 21.9702C33.6138 21.7934 34.0414 21.7174 34.4684 21.7472H34.5576C36.4898 21.7472 38.8829 23.8484 40.0274 27.8056C42.1709 27.3772 44.2246 26.4677 46.0768 25.1266V17.6499C46.0768 8.43981 49.3022 0.647966 53.5085 0.647966C55.7678 0.647966 57.2393 2.80167 57.2393 6.70634C57.1394 13.4108 54.9185 19.8299 51.0115 24.7063V34.3367C51.0115 35.5624 51.0115 36.2102 51.1304 36.2102C51.8467 35.2186 52.4283 34.1023 52.8545 32.9009C54.0139 30.3094 55.4705 27.4904 56.5704 25.4067C57.373 23.9009 58.5918 21.5196 60.7916 21.5196C62.382 21.5196 63.5414 22.8853 63.5414 26.2647V38.3639C63.5414 38.7141 63.5414 38.8717 63.7346 38.8717L64.1062 38.434C64.9088 37.1383 69.1747 29.2939 71.746 24.1635C72.0782 23.3531 72.6005 22.6717 73.2511 22.2C73.9018 21.7284 74.6535 21.4861 75.4173 21.5021C77.0077 21.5021 78.1671 22.8678 78.1671 26.2472V35.4748C78.1671 35.9126 78.1671 36.2102 78.2711 36.2102C78.3752 36.2102 78.5238 36.0701 78.7022 35.6324C79.8615 33.041 82.314 27.788 84.3206 24.181C84.6528 23.3892 85.1649 22.7214 85.7998 22.2516C86.4347 21.7818 87.1678 21.5284 87.9175 21.5196C89.5079 21.5196 90.6673 22.8853 90.6673 26.2647V38.8717C90.6673 39.3095 90.6673 39.3795 90.8754 39.3795L91.2321 38.9417C94.4695 33.8031 97.2348 28.274 99.4813 22.4476C99.7786 21.4495 99.9718 20.9417 100.403 20.9417C100.834 20.9417 101.072 21.8522 101.31 22.6927C101.978 24.6538 103.331 27.1752 104.431 30.0468C106.673 27.6566 109.136 25.5715 111.773 23.8309C113.821 22.4945 116.096 21.7111 118.432 21.5371C118.804 21.5371 119.22 21.5371 119.22 21.9573C119.22 22.6227 118.789 23.0604 118.239 23.7083C116.694 26.0154 115.898 28.8962 115.995 31.8328C115.995 36.2978 118.001 40.185 121.435 40.185C124.868 40.185 126.503 36.683 126.503 33.181C126.569 32.3365 126.569 31.4867 126.503 30.6421C126.182 30.6903 125.858 30.6903 125.537 30.6421C124.526 30.7045 123.515 30.5258 122.564 30.1168C121.721 29.7864 120.988 29.1487 120.473 28.2957C119.957 27.4428 119.685 26.4188 119.696 25.3717C119.678 24.8682 119.751 24.3659 119.908 23.8974C120.066 23.4288 120.305 23.0043 120.61 22.6513C120.915 22.2983 121.28 22.0245 121.681 21.8477C122.081 21.6708 122.509 21.5948 122.936 21.6246H123.025C124.913 21.6246 127.113 23.4807 128.316 27.0877C129.363 26.4824 130.358 25.7613 131.289 24.934C133.132 23.4281 134.396 21.432 136.908 21.432C139.42 21.432 139.88 23.5157 139.88 26.1772V35.4048C139.88 35.9126 139.88 36.1402 140.059 36.1402C140.237 36.1402 140.356 35.72 140.49 35.4048C142.122 31.5309 143.918 27.7558 145.87 24.0935C146.21 23.3053 146.726 22.641 147.363 22.1721C147.999 21.7032 148.732 21.4474 149.482 21.432C151.132 21.432 152.455 22.7978 152.455 26.1772V38.7841C152.455 39.2219 152.648 39.5721 152.886 39.5721C153.555 39.5721 153.926 38.9417 154.298 38.504C156.126 36.1402 156.438 35.4923 156.988 35.4923C157.109 35.4804 157.23 35.4975 157.345 35.5427C157.46 35.5879 157.566 35.6603 157.657 35.7553C157.747 35.8504 157.82 35.9661 157.871 36.0955C157.922 36.2249 157.951 36.3652 157.954 36.5079C157.944 36.7582 157.888 37.0031 157.791 37.2258C155.338 42.111 153.926 45.2978 151.117 45.2978C148.308 45.2978 147.208 43.2141 147.208 40.0449V28.9962C147.208 28.0857 147.089 27.8581 146.836 27.8581C146.584 27.8581 146.42 28.2958 146.108 28.8736C144.83 31.395 141.902 38.0137 139.88 42.9865C139.648 43.7031 139.243 44.3239 138.715 44.7721C138.186 45.2202 137.558 45.476 136.908 45.5079C135.421 45.5079 134.782 44.4398 134.782 42.111V27.9982C134.782 27.0701 134.529 26.5449 133.979 26.5449C133.338 26.679 132.743 27.0321 132.27 27.5604C131.283 28.5371 130.194 29.3609 129.03 30.0118C129.19 31.0688 129.25 32.1435 129.208 33.2161C129.208 40.36 125.359 45.4729 119.859 45.4729C114.36 45.4729 111.253 39.7122 111.253 33.6538C111.217 31.0335 111.883 28.4664 113.156 26.3172C110.941 26.9651 107.954 29.8192 105.456 32.6557C106.045 34.3245 106.377 36.1031 106.437 37.9087C106.437 42.2861 103.881 45.4729 101.057 45.4729C100.604 45.4555 100.158 45.3302 99.7473 45.1047C99.3364 44.8791 98.9684 44.5578 98.6657 44.1603C98.3629 43.7627 98.1316 43.2971 97.9857 42.7914C97.8398 42.2858 97.7823 41.7506 97.8166 41.218C97.8166 38.6966 99.3029 36.3328 100.789 34.2141C100.266 32.8143 99.6549 31.4623 98.9611 30.1694C97.1775 33.6713 94.2494 39.2394 92.2428 42.4262C91.1429 44.0721 90.0281 45.5254 88.3337 45.5254C87.0406 45.5254 85.5691 44.6499 85.5691 41.3406V29.0838C85.5691 28.1382 85.5691 27.788 85.2718 27.788C84.9745 27.788 84.7813 28.2958 84.484 28.8561C83.1909 31.4476 80.2034 37.9962 78.1819 42.969C77.9686 43.676 77.5822 44.2927 77.0717 44.7415C76.5612 45.1902 75.9493 45.4508 75.3133 45.4904C73.8269 45.4904 73.1729 44.4223 73.1729 42.0935V29.2063C73.1729 28.2783 73.054 28.1382 72.8013 28.1382C72.5487 28.1382 72.2514 28.5059 71.9987 28.9962C70.661 31.7452 67.3019 38.0838 64.1211 43.4067C63.845 44.0098 63.4412 44.5186 62.949 44.8837C62.4568 45.2488 61.8929 45.4578 61.3119 45.4904C60.0336 45.4904 58.577 44.6149 58.577 41.3056V29.0487C58.577 28.1908 58.4432 27.8406 58.3243 27.8406C57.8338 27.8406 57.2244 29.3464 56.1245 31.6577C54.7125 34.6168 52.3938 39.5721 51.5317 41.7433C50.5061 44.3873 49.7629 45.5429 48.3509 45.5429C48.0611 45.5619 47.7713 45.5072 47.5011 45.3824C47.2309 45.2577 46.9866 45.0658 46.785 44.82C46.5833 44.5741 46.429 44.2799 46.3324 43.9575C46.2359 43.6351 46.1994 43.292 46.2254 42.9515V28.4884C44.538 29.6169 42.6891 30.3706 40.7705 30.7122C40.7705 31.5701 40.8894 32.3756 40.8894 33.2861C40.8894 40.4301 36.8614 45.5429 31.5403 45.5429C25.8624 45.5429 22.9195 39.7822 22.9195 33.7238C22.9432 32.169 23.1482 30.6254 23.5289 29.1363C21.12 31.1756 18.9116 33.5247 16.9443 36.1402C17.1821 39.4437 17.3011 42.753 17.3011 46.0682C17.3011 57.1519 12.7231 72.1227 6.61421 72.1227" fill="#535353"/>
<path d="M232.495 3.30923C231.93 3.30923 230.176 4.97264 230.176 15.6886V20.9415C232.304 17.1326 233.488 12.7 233.595 8.1419C233.595 4.04463 233.476 3.30923 232.495 3.30923ZM213.975 25.0738C213.862 25.0662 213.749 25.0868 213.643 25.1342C213.537 25.1817 213.441 25.255 213.361 25.3492C213.281 25.4435 213.219 25.5566 213.179 25.6811C213.139 25.8056 213.121 25.9388 213.128 26.0719C213.128 27.5077 214.346 28.0855 216.606 28.0855C215.952 26.0719 214.777 25.0738 213.99 25.0738M302.353 25.0738C302.238 25.0606 302.123 25.0771 302.014 25.1224C301.905 25.1676 301.806 25.2403 301.724 25.3355C301.642 25.4307 301.578 25.546 301.538 25.6732C301.498 25.8004 301.482 25.9365 301.491 26.0719C301.491 27.3501 302.71 28.173 304.167 28.173C304.419 28.173 304.791 28.173 305.014 28.173C304.345 26.1594 303.126 25.1614 302.338 25.1614M166.248 33.9162C165.029 33.9162 164.613 34.494 164.613 35.5096C164.613 37.068 166.382 38.1711 168.76 38.1711C169.678 38.1986 170.597 38.1518 171.51 38.031C169.801 35.5271 168.21 33.9162 166.248 33.9162ZM193.508 2.39871C190.268 2.39871 183.98 10.8909 183.98 23.1127C183.98 31.7625 185.942 36.7878 189.049 41.2528L190.996 38.1536C190.24 33.5278 189.744 28.8484 189.51 24.1458C189.495 18.8767 190.26 13.6449 191.769 8.6847C192.869 5.07769 193.716 3.06409 193.716 2.62635L193.493 2.34619M280.757 36.9454C279.986 38.0758 279.474 39.4201 279.27 40.8501C279.27 41.8481 279.776 42.496 280.251 42.496C280.727 42.496 281.292 41.3404 281.292 40.1847C281.275 39.0692 281.088 37.9662 280.742 36.9279M191.561 41.8306C188.098 47.0835 184.59 54.4201 184.724 63.0699C184.724 65.7139 185.883 67.2372 187.176 67.2372C190.52 67.2372 192.453 59.2178 192.453 52.3364C192.351 48.8137 192.043 45.3034 191.531 41.8306M185.586 71.8423C182.613 71.8423 181.736 68.3404 181.736 63.6478C181.736 57.1516 184.307 49.8851 187.548 43.7567C186.081 42.1435 184.733 40.3862 183.52 38.5038C182.613 38.2941 181.693 38.177 180.77 38.1536C178.902 38.2493 177.051 38.6079 175.255 39.2217C175.151 42.7236 174.527 45.1925 173.487 45.1925C172.803 45.1925 172.625 44.2469 172.625 43.0388C172.625 42.1633 172.506 41.1653 172.506 40.0096C171.469 40.3124 170.408 40.4826 169.34 40.5174C164.019 40.5174 159.797 38.6439 159.797 34.9143C159.797 32.9532 160.897 31.0096 164.569 31.0096C165.965 30.9362 167.36 31.2101 168.66 31.8135C169.961 32.4168 171.14 33.3361 172.119 34.5115C171.911 32.4744 171.215 30.5492 170.113 28.961C169.994 28.7743 169.931 28.5464 169.934 28.3131C169.934 28.033 170.663 27.6127 171.421 27.1575C171.961 26.7612 172.571 26.5156 173.204 26.4396L173.68 26.6672C174.78 28.103 175.404 32.3579 175.404 35.4221V36.8578C177.022 36.3601 178.682 36.0724 180.354 35.9999C180.926 35.9843 181.498 36.0312 182.063 36.1399C180.043 32.146 179.046 27.5487 179.194 22.9026C179.194 8.99989 190.074 -0.280273 195.024 -0.280273C195.678 -0.280273 195.931 0.0173919 195.931 0.595213C195.906 1.24106 195.846 1.8844 195.752 2.52129C194.952 6.73031 194.524 11.0255 194.474 15.3384C194.6 20.9797 194.987 26.6087 195.633 32.2003C201.742 25.0038 206.885 21.3267 209.204 21.3267C209.575 21.3267 209.991 21.3267 209.991 21.747C209.818 22.4271 209.482 23.0346 209.025 23.4979C207.479 25.8056 206.679 28.6846 206.766 31.6225C206.766 36.0874 208.773 39.9746 212.191 39.9746C215.61 39.9746 217.26 36.4727 217.26 32.9707C217.282 32.1982 217.248 31.4248 217.156 30.6594H216.353C213.544 30.6594 210.408 29.0835 210.408 25.2489C210.39 24.7438 210.463 24.24 210.621 23.7702C210.78 23.3003 211.02 22.875 211.327 22.5216C211.634 22.1683 212 21.8949 212.403 21.7193C212.805 21.5436 213.235 21.4695 213.663 21.5018H213.752C215.684 21.5018 218.077 23.603 219.222 27.5602C221.37 27.131 223.428 26.2217 225.286 24.8812V17.4046C225.286 8.19444 228.511 0.402605 232.718 0.402605C234.977 0.402605 236.448 2.55631 236.448 6.46098C236.349 13.1655 234.128 19.5845 230.221 24.461V34.0913C230.221 35.317 230.221 35.9649 230.34 35.9649C231.043 34.9685 231.614 33.8528 232.034 32.6555C233.193 30.0641 234.665 27.245 235.75 25.1614C236.553 23.6555 237.771 21.2742 239.971 21.2742C241.576 21.2742 242.721 22.64 242.721 26.0193V38.1185C242.721 38.4687 242.721 38.6263 242.914 38.6263L243.286 38.1886C244.073 36.8929 248.354 29.0485 250.926 23.9182C251.255 23.1091 251.775 22.4284 252.423 21.9566C253.071 21.4849 253.82 21.242 254.582 21.2567C256.172 21.2567 257.332 22.6224 257.332 26.0018V35.2295C257.332 35.6672 257.332 35.9474 257.465 35.9474C257.599 35.9474 257.703 35.8248 257.882 35.3695C259.041 32.7781 261.479 27.5252 263.5 23.9182C263.836 23.1262 264.351 22.4588 264.988 21.9893C265.626 21.5197 266.36 21.2663 267.112 21.2567C268.702 21.2567 269.862 22.6224 269.862 26.0018V38.6088C269.862 39.0466 269.862 39.1166 270.04 39.1166L270.412 38.6789C273.649 33.54 276.414 28.011 278.661 22.1847C278.958 21.1867 279.151 20.6789 279.567 20.6789C279.984 20.6789 280.236 21.5894 280.489 22.4298C281.173 24.3909 282.51 26.9123 283.61 29.7839C285.853 27.3953 288.316 25.3102 290.953 23.568C293.001 22.2327 295.275 21.4493 297.612 21.2742C297.968 21.2742 298.4 21.2742 298.4 21.6944C298.4 22.3598 297.968 22.7976 297.419 23.4454C295.869 25.7509 295.068 28.6314 295.159 31.5699C295.159 36.0349 297.166 39.922 300.584 39.922C304.003 39.922 305.668 36.4201 305.668 32.9182C305.732 32.0736 305.732 31.2239 305.668 30.3792C305.347 30.4261 305.022 30.4261 304.702 30.3792C303.691 30.4401 302.68 30.2615 301.729 29.854C300.887 29.5229 300.156 28.8844 299.643 28.0312C299.13 27.178 298.861 26.1544 298.875 25.1088C298.858 24.6053 298.93 24.1031 299.088 23.6345C299.245 23.1659 299.484 22.7414 299.79 22.3884C300.095 22.0354 300.46 21.7616 300.86 21.5848C301.261 21.408 301.688 21.332 302.115 21.3618H302.205C304.077 21.3618 306.277 23.2178 307.481 26.8248C308.527 26.2187 309.523 25.4976 310.454 24.6711C312.282 23.1653 313.56 21.1691 316.072 21.1691C318.584 21.1691 319.045 23.2528 319.045 25.9143V35.1419C319.045 35.6497 319.045 35.8598 319.208 35.8598C319.372 35.8598 319.521 35.4396 319.654 35.1419C321.273 31.2629 323.064 27.4873 325.02 23.8306C325.361 23.0436 325.878 22.3804 326.514 21.9117C327.15 21.443 327.882 21.1864 328.632 21.1691C330.282 21.1691 331.605 22.5349 331.605 25.9143V38.5213C331.605 38.959 331.768 39.3092 332.021 39.3092C332.69 39.3092 333.061 38.6964 333.433 38.2411C335.261 35.8773 335.573 35.2295 336.123 35.2295C336.243 35.22 336.364 35.2389 336.478 35.285C336.592 35.3312 336.697 35.4037 336.787 35.4982C336.877 35.5928 336.95 35.7076 337.002 35.8358C337.054 35.964 337.084 36.1032 337.089 36.245C337.079 36.4954 337.023 36.7401 336.926 36.9629C334.473 41.8481 333.061 45.0349 330.252 45.0349C327.443 45.0349 326.343 42.9513 326.343 39.782V28.996C326.343 28.0855 326.224 27.8579 325.971 27.8579C325.719 27.8579 325.54 28.2956 325.228 28.8734C323.95 31.3948 321.007 38.0135 319 42.9862C318.767 43.7016 318.361 44.3212 317.833 44.7691C317.305 45.2169 316.678 45.4736 316.028 45.5077C314.541 45.5077 313.902 44.422 313.902 42.1108V27.9979C313.902 27.0699 313.649 26.5446 313.1 26.5446C312.457 26.6757 311.862 27.0292 311.39 27.5602C310.406 28.5416 309.317 29.3659 308.15 30.0116C308.307 31.0749 308.367 32.155 308.328 33.2333C308.328 40.3773 304.494 45.4902 298.994 45.4902C293.495 45.4902 290.388 39.7119 290.388 33.6711C290.349 31.0529 291.009 28.4863 292.276 26.3345C290.076 26.9824 287.074 29.8365 284.562 32.673C285.144 34.3431 285.472 36.1215 285.528 37.926C285.528 42.3034 282.971 45.4902 280.162 45.4902C279.709 45.4729 279.265 45.3476 278.854 45.1218C278.444 44.8961 278.077 44.5745 277.776 44.1767C277.474 43.7788 277.244 43.313 277.1 42.8074C276.956 42.3018 276.9 41.7669 276.937 41.2353C276.937 38.7139 278.423 36.3501 279.909 34.2314C279.38 32.8353 278.769 31.4838 278.081 30.1866C276.298 33.6886 273.369 39.2567 271.348 42.4435C270.248 44.0894 269.148 45.5427 267.439 45.5427C266.161 45.5427 264.704 44.6672 264.704 41.3579V29.101C264.704 28.1555 264.704 27.8053 264.407 27.8053C264.109 27.8053 263.901 28.3131 263.589 28.8734C262.311 31.4649 259.323 38.0135 257.302 42.9862C257.087 43.692 256.7 44.3075 256.19 44.7559C255.68 45.2043 255.069 45.4658 254.433 45.5077C252.947 45.5077 252.308 44.422 252.308 42.1108V29.2236C252.308 28.2956 252.174 28.1555 251.936 28.1555C251.698 28.1555 251.386 28.5232 251.148 29.0135C249.811 31.7625 246.437 38.101 243.271 43.424C242.992 44.0285 242.586 44.5379 242.091 44.903C241.596 45.268 241.03 45.4763 240.447 45.5077C239.154 45.5077 237.697 44.6322 237.697 41.3229V29.066C237.697 28.208 237.593 27.8579 237.459 27.8579C236.969 27.8579 236.359 29.3637 235.259 31.675C233.773 34.6341 231.514 39.5894 230.667 41.7606C229.626 44.4046 228.898 45.5602 227.471 45.5602C227.18 45.5765 226.89 45.5194 226.62 45.3926C226.35 45.2658 226.106 45.0723 225.905 44.8251C225.703 44.5779 225.549 44.2828 225.453 43.9596C225.356 43.6363 225.32 43.2925 225.345 42.9512V28.4882C223.66 29.623 221.81 30.3771 219.891 30.7119C219.971 31.5667 220.01 32.426 220.009 33.2859C220.009 40.4298 215.981 45.5427 210.675 45.5427C204.982 45.5427 202.054 39.7645 202.054 33.7236C202.08 32.169 202.285 30.6257 202.664 29.1361C200.252 31.1771 198.038 33.5259 196.064 36.1399C196.317 39.4493 196.436 42.7586 196.436 46.068C196.436 57.1516 191.858 72.1225 185.749 72.1225" fill="#535353"/>
</g>
<defs>
<clipPath id="clip0_9_219">
<rect width="337" height="72" fill="white"/>
</clipPath>
</defs>
</svg>
