<svg width="125" height="125" viewBox="0 0 125 125" fill="none" xmlns="http://www.w3.org/2000/svg">
<path d="M105.469 39.0625H19.5312C17.3739 39.0625 15.625 40.8114 15.625 42.9688V58.5938C15.625 60.7511 17.3739 62.5 19.5312 62.5H105.469C107.626 62.5 109.375 60.7511 109.375 58.5938V42.9688C109.375 40.8114 107.626 39.0625 105.469 39.0625Z" stroke="black" stroke-width="6" stroke-linecap="round" stroke-linejoin="round"/>
<path d="M101.562 62.5V97.6562C101.562 98.6923 101.151 99.6858 100.418 100.418C99.6858 101.151 98.6923 101.562 97.6562 101.562H27.3438C26.3077 101.562 25.3142 101.151 24.5816 100.418C23.8491 99.6858 23.4375 98.6923 23.4375 97.6562V62.5" stroke="black" stroke-width="6" stroke-linecap="round" stroke-linejoin="round"/>
<path d="M62.5 39.0625V101.562" stroke="black" stroke-width="6" stroke-linecap="round" stroke-linejoin="round"/>
<path d="M84.6191 33.5449C79.0527 39.0625 62.5 39.0625 62.5 39.0625C62.5 39.0625 62.5 22.5098 68.0176 16.9434C70.2191 14.7419 73.205 13.5051 76.3184 13.5051C79.4318 13.5051 82.4176 14.7419 84.6191 16.9434C86.8206 19.1449 88.0574 22.1307 88.0574 25.2441C88.0574 28.3575 86.8206 31.3434 84.6191 33.5449V33.5449Z" stroke="black" stroke-width="6" stroke-linecap="round" stroke-linejoin="round"/>
<path d="M40.3809 33.5449C45.9473 39.0625 62.5 39.0625 62.5 39.0625C62.5 39.0625 62.5 22.5098 56.9824 16.9434C54.7809 14.7419 51.795 13.5051 48.6816 13.5051C45.5682 13.5051 42.5824 14.7419 40.3809 16.9434C38.1794 19.1449 36.9426 22.1307 36.9426 25.2441C36.9426 28.3575 38.1794 31.3434 40.3809 33.5449V33.5449Z" stroke="black" stroke-width="6" stroke-linecap="round" stroke-linejoin="round"/>
</svg>
