<svg width="35" height="35" viewBox="0 0 35 35" fill="none" xmlns="http://www.w3.org/2000/svg">
<g clip-path="url(#clip0_11_265)">
<path d="M17.5 12.0313C17.5 9.02345 20.0293 6.52149 23.0371 6.56251C24.0905 6.57467 25.1179 6.8908 25.9959 7.47289C26.8739 8.05498 27.565 8.87826 27.9863 9.84376H32.8125L28.3965 14.2598C28.1115 18.6957 26.1478 22.8566 22.9048 25.8965C19.6617 28.9365 15.3826 30.6272 10.9375 30.625C6.5625 30.625 5.46875 28.9844 5.46875 28.9844C5.46875 28.9844 9.84375 27.3438 12.0313 24.0625C12.0313 24.0625 3.28125 19.6875 5.46875 7.65626C5.46875 7.65626 10.9375 13.125 17.5 14.2188V12.0313Z" stroke="black" stroke-width="3" stroke-linecap="round" stroke-linejoin="round"/>
</g>
<defs>
<clipPath id="clip0_11_265">
<rect width="35" height="35" fill="white"/>
</clipPath>
</defs>
</svg>
